{
  "accessors": [
    {
      "bufferView": 2,
      "componentType": 5126,
      "count": 65532,
      "max": [
        0.5655310750007629,
        0.3244965374469757,
        0.41531047224998474
      ],
      "min": [
        -0.7597464323043823,
        -0.003939002752304077,
        -1.5102581977844238
      ],
      "type": "VEC3"
    },
    {
      "bufferView": 2,
      "byteOffset": 786384,
      "componentType": 5126,
      "count": 65532,
      "max": [
        0.9999908208847046,
        0.9999903440475464,
        0.9999822974205017
      ],
      "min": [
        -0.9999991655349731,
        -1.0,
        -0.9999948740005493
      ],
      "type": "VEC3"
    },
    {
      "bufferView": 1,
      "componentType": 5126,
      "count": 65532,
      "max": [
        0.9984245896339417,
        0.99951171875
      ],
      "min": [
        0.0012229783460497856,
        0.0012255002511665225
      ],
      "type": "VEC2"
    },
    {
      "bufferView": 1,
      "byteOffset": 524256,
      "componentType": 5126,
      "count": 65532,
      "max": [
        0.9984245896339417,
        0.99951171875
      ],
      "min": [
        0.0012229783460497856,
        0.0012255002511665225
      ],
      "type": "VEC2"
    },
    {
      "bufferView": 1,
      "byteOffset": 1048512,
      "componentType": 5126,
      "count": 65532,
      "max": [
        0.9984245896339417,
        0.99951171875
      ],
      "min": [
        0.0012229783460497856,
        0.0012255002511665225
      ],
      "type": "VEC2"
    },
    {
      "bufferView": 1,
      "byteOffset": 1572768,
      "componentType": 5126,
      "count": 65532,
      "max": [
        0.9984245896339417,
        0.99951171875
      ],
      "min": [
        0.0012229783460497856,
        0.0012255002511665225
      ],
      "type": "VEC2"
    },
    {
      "bufferView": 0,
      "componentType": 5125,
      "count": 243582,
      "type": "SCALAR"
    },
    {
      "bufferView": 2,
      "byteOffset": 1572768,
      "componentType": 5126,
      "count": 65532,
      "max": [
        0.47709304094314575,
        0.32098907232284546,
        0.734014093875885
      ],
      "min": [
        -0.1867271065711975,
        -0.003967404365539551,
        -1.0670058727264404
      ],
      "type": "VEC3"
    },
    {
      "bufferView": 2,
      "byteOffset": 2359152,
      "componentType": 5126,
      "count": 65532,
      "max": [
        0.9999967217445374,
        0.9999977350234985,
        0.9998589754104614
      ],
      "min": [
        -0.9999812245368958,
        -0.9999982118606567,
        -0.9998093247413635
      ],
      "type": "VEC3"
    },
    {
      "bufferView": 1,
      "byteOffset": 2097024,
      "componentType": 5126,
      "count": 65532,
      "max": [
        0.9984624981880188,
        0.9994621276855469
      ],
      "min": [
        0.0012281056260690093,
        0.0012230600696057081
      ],
      "type": "VEC2"
    },
    {
      "bufferView": 1,
      "byteOffset": 2621280,
      "componentType": 5126,
      "count": 65532,
      "max": [
        0.9984624981880188,
        0.9994621276855469
      ],
      "min": [
        0.0012281056260690093,
        0.0012230600696057081
      ],
      "type": "VEC2"
    },
    {
      "bufferView": 1,
      "byteOffset": 3145536,
      "componentType": 5126,
      "count": 65532,
      "max": [
        0.9984624981880188,
        0.9994621276855469
      ],
      "min": [
        0.0012281056260690093,
        0.0012230600696057081
      ],
      "type": "VEC2"
    },
    {
      "bufferView": 1,
      "byteOffset": 3669792,
      "componentType": 5126,
      "count": 65532,
      "max": [
        0.9984624981880188,
        0.9994621276855469
      ],
      "min": [
        0.0012281056260690093,
        0.0012230600696057081
      ],
      "type": "VEC2"
    },
    {
      "bufferView": 0,
      "byteOffset": 974328,
      "componentType": 5125,
      "count": 220707,
      "type": "SCALAR"
    },
    {
      "bufferView": 2,
      "byteOffset": 3145536,
      "componentType": 5126,
      "count": 65532,
      "max": [
        0.5583943724632263,
        0.3230171203613281,
        0.7371687889099121
      ],
      "min": [
        -0.7543038129806519,
        -0.004088506102561951,
        -1.5097830295562744
      ],
      "type": "VEC3"
    },
    {
      "bufferView": 2,
      "byteOffset": 3931920,
      "componentType": 5126,
      "count": 65532,
      "max": [
        0.999921977519989,
        0.9999785423278809,
        0.9998965859413147
      ],
      "min": [
        -0.9999931454658508,
        -0.9999986886978149,
        -0.9999653100967407
      ],
      "type": "VEC3"
    },
    {
      "bufferView": 1,
      "byteOffset": 4194048,
      "componentType": 5126,
      "count": 65532,
      "max": [
        0.9987865090370178,
        0.9994350075721741
      ],
      "min": [
        0.0012229783460497856,
        0.0012344860006123781
      ],
      "type": "VEC2"
    },
    {
      "bufferView": 1,
      "byteOffset": 4718304,
      "componentType": 5126,
      "count": 65532,
      "max": [
        0.9987865090370178,
        0.9994350075721741
      ],
      "min": [
        0.0012229783460497856,
        0.0012344860006123781
      ],
      "type": "VEC2"
    },
    {
      "bufferView": 1,
      "byteOffset": 5242560,
      "componentType": 5126,
      "count": 65532,
      "max": [
        0.9987865090370178,
        0.9994350075721741
      ],
      "min": [
        0.0012229783460497856,
        0.0012344860006123781
      ],
      "type": "VEC2"
    },
    {
      "bufferView": 1,
      "byteOffset": 5766816,
      "componentType": 5126,
      "count": 65532,
      "max": [
        0.9987865090370178,
        0.9994350075721741
      ],
      "min": [
        0.0012229783460497856,
        0.0012344860006123781
      ],
      "type": "VEC2"
    },
    {
      "bufferView": 0,
      "byteOffset": 1857156,
      "componentType": 5125,
      "count": 215652,
      "type": "SCALAR"
    },
    {
      "bufferView": 2,
      "byteOffset": 4718304,
      "componentType": 5126,
      "count": 25472,
      "max": [
        0.4715765714645386,
        0.32402342557907104,
        0.7351352572441101
      ],
      "min": [
        -0.7363107204437256,
        -0.003967404365539551,
        -1.0667083263397217
      ],
      "type": "VEC3"
    },
    {
      "bufferView": 2,
      "byteOffset": 5023968,
      "componentType": 5126,
      "count": 25472,
      "max": [
        0.999961256980896,
        0.9999435544013977,
        0.9996883869171143
      ],
      "min": [
        -0.9998894333839417,
        -0.9999731183052063,
        -0.9998093247413635
      ],
      "type": "VEC3"
    },
    {
      "bufferView": 1,
      "byteOffset": 6291072,
      "componentType": 5126,
      "count": 25472,
      "max": [
        0.9987865090370178,
        0.999506950378418
      ],
      "min": [
        0.00048828125,
        0.00048828125
      ],
      "type": "VEC2"
    },
    {
      "bufferView": 1,
      "byteOffset": 6494848,
      "componentType": 5126,
      "count": 25472,
      "max": [
        0.9987865090370178,
        0.999506950378418
      ],
      "min": [
        0.00048828125,
        0.00048828125
      ],
      "type": "VEC2"
    },
    {
      "bufferView": 1,
      "byteOffset": 6698624,
      "componentType": 5126,
      "count": 25472,
      "max": [
        0.9987865090370178,
        0.999506950378418
      ],
      "min": [
        0.00048828125,
        0.00048828125
      ],
      "type": "VEC2"
    },
    {
      "bufferView": 1,
      "byteOffset": 6902400,
      "componentType": 5126,
      "count": 25472,
      "max": [
        0.9987865090370178,
        0.999506950378418
      ],
      "min": [
        0.00048828125,
        0.00048828125
      ],
      "type": "VEC2"
    },
    {
      "bufferView": 0,
      "byteOffset": 2719764,
      "componentType": 5125,
      "count": 52107,
      "type": "SCALAR"
    }
  ],
  "asset": {
    "extras": {
      "author": "Samuel Francis Johnson (Oneironauticus) (https://sketchfab.com/oneironauticus)",
      "license": "CC-BY-4.0 (http://creativecommons.org/licenses/by/4.0/)",
      "source": "https://sketchfab.com/3d-models/broken-ancient-greek-column-debris-1ad492ad20164a108d6d37c83adba223",
      "title": "Broken ancient greek column - debris"
    },
    "generator": "Sketchfab-15.44.0",
    "version": "2.0"
  },
  "bufferViews": [
    {
      "buffer": 0,
      "byteLength": 2928192,
      "name": "floatBufferViews",
      "target": 34963
    },
    {
      "buffer": 0,
      "byteLength": 7106176,
      "byteOffset": 2928192,
      "byteStride": 8,
      "name": "floatBufferViews",
      "target": 34962
    },
    {
      "buffer": 0,
      "byteLength": 5329632,
      "byteOffset": 10034368,
      "byteStride": 12,
      "name": "floatBufferViews",
      "target": 34962
    }
  ],
  "buffers": [
    {
      "byteLength": 15364000,
      "uri": "scene.bin"
    }
  ],
  "extensionsUsed": [
    "KHR_materials_specular"
  ],
  "images": [
    {
      "uri": "textures/Debris_Column_cell_BAKED_baseColor.jpeg"
    },
    {
      "uri": "textures/Debris_Column_cell_BAKED_metallicRoughness.png"
    }
  ],
  "materials": [
    {
      "doubleSided": true,
      "extensions": {
        "KHR_materials_specular": {
          "specularColorFactor": [
            1.0,
            1.0,
            1.0
          ],
          "specularFactor": 0.14425851125216388
        }
      },
      "name": "Debris_Column_cell_BAKED",
      "pbrMetallicRoughness": {
        "baseColorTexture": {
          "index": 0
        },
        "metallicFactor": 0.0,
        "metallicRoughnessTexture": {
          "index": 1,
          "texCoord": 1
        }
      }
    }
  ],
  "meshes": [
    {
      "name": "Object_0",
      "primitives": [
        {
          "attributes": {
            "NORMAL": 1,
            "POSITION": 0,
            "TEXCOORD_0": 2,
            "TEXCOORD_1": 3,
            "TEXCOORD_2": 4,
            "TEXCOORD_3": 5
          },
          "indices": 6,
          "material": 0,
          "mode": 4
        }
      ]
    },
    {
      "name": "Object_1",
      "primitives": [
        {
          "attributes": {
            "NORMAL": 8,
            "POSITION": 7,
            "TEXCOORD_0": 9,
            "TEXCOORD_1": 10,
            "TEXCOORD_2": 11,
            "TEXCOORD_3": 12
          },
          "indices": 13,
          "material": 0,
          "mode": 4
        }
      ]
    },
    {
      "name": "Object_2",
      "primitives": [
        {
          "attributes": {
            "NORMAL": 15,
            "POSITION": 14,
            "TEXCOORD_0": 16,
            "TEXCOORD_1": 17,
            "TEXCOORD_2": 18,
            "TEXCOORD_3": 19
          },
          "indices": 20,
          "material": 0,
          "mode": 4
        }
      ]
    },
    {
      "name": "Object_3",
      "primitives": [
        {
          "attributes": {
            "NORMAL": 22,
            "POSITION": 21,
            "TEXCOORD_0": 23,
            "TEXCOORD_1": 24,
            "TEXCOORD_2": 25,
            "TEXCOORD_3": 26
          },
          "indices": 27,
          "material": 0,
          "mode": 4
        }
      ]
    }
  ],
  "nodes": [
    {
      "children": [
        1
      ],
      "matrix": [
        1.0,
        0.0,
        0.0,
        0.0,
        0.0,
        2.220446049250313e-16,
        -1.0,
        0.0,
        0.0,
        1.0,
        2.220446049250313e-16,
        0.0,
        0.0,
        0.0,
        0.0,
        1.0
      ],
      "name": "Sketchfab_model"
    },
    {
      "children": [
        2
      ],
      "name": "root"
    },
    {
      "children": [
        3
      ],
      "matrix": [
        1.0,
        0.0,
        0.0,
        0.0,
        0.0,
        2.220446049250313e-16,
        1.0,
        0.0,
        0.0,
        -1.0,
        2.220446049250313e-16,
        0.0,
        0.0,
        0.0,
        0.0,
        1.0
      ],
      "name": "GLTF_SceneRootNode"
    },
    {
      "children": [
        4,
        5,
        6,
        7
      ],
      "name": "Broken Column_0"
    },
    {
      "mesh": 0,
      "name": "Object_4"
    },
    {
      "mesh": 1,
      "name": "Object_5"
    },
    {
      "mesh": 2,
      "name": "Object_6"
    },
    {
      "mesh": 3,
      "name": "Object_7"
    }
  ],
  "samplers": [
    {
      "magFilter": 9729,
      "minFilter": 9987,
      "wrapS": 10497,
      "wrapT": 10497
    }
  ],
  "scene": 0,
  "scenes": [
    {
      "name": "Sketchfab_Scene",
      "nodes": [
        0
      ]
    }
  ],
  "textures": [
    {
      "sampler": 0,
      "source": 0
    },
    {
      "sampler": 0,
      "source": 1
    }
  ]
}
